<svg width="685" height="418" viewBox="0 0 685 418" fill="none" xmlns="http://www.w3.org/2000/svg">
<g filter="url(#filter0_d)">
<rect x="5" y="45.4165" width="675" height="363.583" rx="39" stroke="black" stroke-opacity="0.8" stroke-width="2"/>
</g>
<circle cx="354.635" cy="214.74" r="94.7603" stroke="black" stroke-opacity="0.9"/>
<circle cx="354.635" cy="214.739" r="79.9061" stroke="black" stroke-opacity="0.8"/>
<circle cx="354.635" cy="214.74" r="87.6561" stroke="black" stroke-opacity="0.8"/>
<circle cx="354.635" cy="214.739" r="71.5103" stroke="black" stroke-opacity="0.9"/>
<circle cx="354.635" cy="214.74" r="46.8228" fill="black" fill-opacity="0.8"/>
<circle cx="354.635" cy="214.74" r="46.3228" stroke="black" stroke-opacity="0.8"/>
<circle r="11.3021" transform="matrix(1 0 0 -1 191.241 123.031)" fill="black" fill-opacity="0.8"/>
<circle r="10.8021" transform="matrix(1 0 0 -1 191.241 123.031)" stroke="black" stroke-opacity="0.8"/>
<rect x="54.5" y="28.9165" width="47.4374" height="11.9166" rx="4.5" stroke="black" stroke-opacity="0.9"/>
<rect x="54.5" y="16.645" width="47.4374" height="11.9166" rx="4.5" stroke="black" stroke-opacity="0.9"/>
<rect x="311.041" y="9.68701" width="60.7082" height="22.6041" rx="10" fill="black" fill-opacity="0.8"/>
<rect x="311.541" y="10.187" width="59.7082" height="21.6041" rx="9.5" stroke="black" stroke-opacity="0.8"/>
<rect x="293.458" y="0.5" width="95.8748" height="40.9791" stroke="black" stroke-opacity="0.9"/>
<path d="M60.6875 89.125L60.6875 88.1875L61.625 88.1875L61.625 85.375L60.6875 85.375L60.6875 84.4375L61.625 84.4375L61.625 82.5625L63.5 82.5625L63.5 84.4375L64.4375 84.4375L64.4375 82.5625L66.3125 82.5625L66.3125 84.4375L67.25 84.4375L67.25 85.375L66.3125 85.375L66.3125 88.1875L67.25 88.1875L67.25 89.125L66.3125 89.125L66.3125 91L64.4375 91L64.4375 89.125L63.5 89.125L63.5 91L61.625 91L61.625 89.125L60.6875 89.125ZM64.4375 85.375L63.5 85.375L63.5 88.1875L64.4375 88.1875L64.4375 85.375ZM70.3625 83.5L70.3625 81.625L72.2375 81.625L72.2375 83.5L70.3625 83.5ZM74.1125 90.0625L74.1125 91L68.4875 91L68.4875 90.0625L70.3625 90.0625L70.3625 85.375L68.4875 85.375L68.4875 84.4375L72.2375 84.4375L72.2375 90.0625L74.1125 90.0625ZM81.9125 85.375L81.9125 91L80.0375 91L80.0375 85.375L78.1625 85.375L78.1625 91L76.2875 91L76.2875 84.4375L80.975 84.4375L80.975 85.375L81.9125 85.375ZM84.0875 87.25L84.0875 85.375L85.025 85.375L85.025 84.4375L89.7125 84.4375L89.7125 85.375L85.9625 85.375L85.9625 87.25L88.775 87.25L88.775 88.1875L89.7125 88.1875L89.7125 90.0625L88.775 90.0625L88.775 91L84.0875 91L84.0875 90.0625L87.8375 90.0625L87.8375 88.1875L85.025 88.1875L85.025 87.25L84.0875 87.25ZM94.7 82.5625L94.7 84.4375L97.5125 84.4375L97.5125 85.375L94.7 85.375L94.7 90.0625L97.5125 90.0625L97.5125 91L93.7625 91L93.7625 90.0625L92.825 90.0625L92.825 85.375L91.8875 85.375L91.8875 84.4375L92.825 84.4375L92.825 82.5625L94.7 82.5625ZM100.625 85.375L100.625 84.4375L104.375 84.4375L104.375 85.375L105.312 85.375L105.312 91L100.625 91L100.625 90.0625L99.6875 90.0625L99.6875 88.1875L100.625 88.1875L100.625 87.25L103.437 87.25L103.437 85.375L100.625 85.375ZM103.437 88.1875L101.562 88.1875L101.562 90.0625L103.437 90.0625L103.437 88.1875Z" fill="#121212"/>
<path d="M126.787 89.125L126.787 88.1875L127.725 88.1875L127.725 85.375L126.787 85.375L126.787 84.4375L127.725 84.4375L127.725 82.5625L129.6 82.5625L129.6 84.4375L130.537 84.4375L130.537 82.5625L132.412 82.5625L132.412 84.4375L133.35 84.4375L133.35 85.375L132.412 85.375L132.412 88.1875L133.35 88.1875L133.35 89.125L132.412 89.125L132.412 91L130.537 91L130.537 89.125L129.6 89.125L129.6 91L127.725 91L127.725 89.125L126.787 89.125ZM130.537 85.375L129.6 85.375L129.6 88.1875L130.537 88.1875L130.537 85.375ZM137.4 82.5625L137.4 84.4375L140.212 84.4375L140.212 85.375L137.4 85.375L137.4 90.0625L140.212 90.0625L140.212 91L136.462 91L136.462 90.0625L135.525 90.0625L135.525 85.375L134.587 85.375L134.587 84.4375L135.525 84.4375L135.525 82.5625L137.4 82.5625ZM144.262 83.5L144.262 81.625L146.137 81.625L146.137 83.5L144.262 83.5ZM148.012 90.0625L148.012 91L142.387 91L142.387 90.0625L144.262 90.0625L144.262 85.375L142.387 85.375L142.387 84.4375L146.137 84.4375L146.137 90.0625L148.012 90.0625ZM154.875 84.4375L154.875 85.375L155.812 85.375L155.812 86.3125L153.937 86.3125L153.937 85.375L152.062 85.375L152.062 90.0625L153.937 90.0625L153.937 89.125L155.812 89.125L155.812 90.0625L154.875 90.0625L154.875 91L151.125 91L151.125 90.0625L150.187 90.0625L150.187 85.375L151.125 85.375L151.125 84.4375L154.875 84.4375ZM160.8 82.5625L160.8 84.4375L163.613 84.4375L163.613 85.375L160.8 85.375L160.8 90.0625L163.613 90.0625L163.613 91L159.863 91L159.863 90.0625L158.925 90.0625L158.925 85.375L157.988 85.375L157.988 84.4375L158.925 84.4375L158.925 82.5625L160.8 82.5625ZM170.475 84.4375L170.475 85.375L171.412 85.375L171.412 90.0625L170.475 90.0625L170.475 91L166.725 91L166.725 90.0625L165.787 90.0625L165.787 85.375L166.725 85.375L166.725 84.4375L170.475 84.4375ZM169.537 85.375L167.662 85.375L167.662 90.0625L169.537 90.0625L169.537 85.375ZM175.463 82.5625L175.462 87.25L176.4 87.25L176.4 86.3125L177.337 86.3125L177.338 84.4375L179.213 84.4375L179.212 86.3125L178.275 86.3125L178.275 87.25L177.337 87.25L177.337 88.1875L178.275 88.1875L178.275 89.125L179.212 89.125L179.212 91L177.337 91L177.337 89.125L176.4 89.125L176.4 88.1875L175.462 88.1875L175.462 91L173.587 91L173.588 82.5625L175.463 82.5625Z" fill="#121212"/>
<path d="M199.587 88.625L199.587 87.6875L200.525 87.6875L200.525 84.875L199.587 84.875L199.588 83.9375L200.525 83.9375L200.525 82.0625L202.4 82.0625L202.4 83.9375L203.338 83.9375L203.338 82.0625L205.213 82.0625L205.213 83.9375L206.15 83.9375L206.15 84.875L205.212 84.875L205.212 87.6875L206.15 87.6875L206.15 88.625L205.212 88.625L205.212 90.5L203.337 90.5L203.337 88.625L202.4 88.625L202.4 90.5L200.525 90.5L200.525 88.625L199.587 88.625ZM203.337 84.875L202.4 84.875L202.4 87.6875L203.337 87.6875L203.337 84.875ZM219.575 92.375L217.7 92.375L217.7 86.75L214.887 86.75L214.887 85.8125L217.7 85.8125L217.7 80.1875L219.575 80.1875L219.575 92.375ZM214.887 91.4375L213.012 91.4375L213.012 90.5L212.075 90.5L212.075 89.5625L210.2 89.5625L210.2 90.5L209.262 90.5L209.262 91.4375L207.387 91.4375L207.387 90.5L208.325 90.5L208.325 89.5625L209.262 89.5625L209.262 88.625L210.2 88.625L210.2 82.0625L207.387 82.0625L207.387 81.125L214.887 81.125L214.887 82.0625L212.075 82.0625L212.075 88.625L213.012 88.625L213.012 89.5625L213.95 89.5625L213.95 90.5L214.887 90.5L214.887 91.4375ZM224.562 85.8125L230.187 85.8125L230.187 86.75L223.625 86.75L223.625 85.8125L222.687 85.8125L222.687 80.1875L224.562 80.1875L224.562 85.8125ZM234.875 86.75L233 86.75L233 83.9375L230.187 83.9375L230.187 83L233 83L233 80.1875L234.875 80.1875L234.875 86.75ZM223.625 89.5625L233 89.5625L233 88.625L223.625 88.625L223.625 87.6875L234.875 87.6875L234.875 90.5L225.5 90.5L225.5 91.4375L234.875 91.4375L234.875 92.375L224.562 92.375L224.562 91.4375L223.625 91.4375L223.625 89.5625ZM250.175 92.375L248.3 92.375L248.3 80.1875L250.175 80.1875L250.175 92.375ZM243.613 91.4375L238.925 91.4375L238.925 90.5L237.988 90.5L237.988 84.875L242.675 84.875L242.675 82.0625L237.988 82.0625L237.988 81.125L244.55 81.125L244.55 85.8125L239.863 85.8125L239.863 90.5L242.675 90.5L242.675 89.5625L244.55 89.5625L244.55 90.5L243.613 90.5L243.613 91.4375ZM265.475 84.875L261.725 84.875L261.725 83.9375L260.788 83.9375L260.788 83L258.913 83L258.913 83.9375L257.975 83.9375L257.975 84.875L254.225 84.875L254.225 83.9375L257.038 83.9375L257.038 83L257.975 83L257.975 82.0625L258.913 82.0625L258.913 81.125L254.225 81.125L254.225 80.1875L265.475 80.1875L265.475 81.125L260.788 81.125L260.788 82.0625L261.725 82.0625L261.725 83L262.663 83L262.663 83.9375L265.475 83.9375L265.475 84.875ZM266.413 86.75L253.288 86.75L253.288 85.8125L266.413 85.8125L266.413 86.75ZM265.475 91.4375L264.538 91.4375L264.538 92.375L255.163 92.375L255.163 91.4375L254.225 91.4375L254.225 87.6875L265.475 87.6875L265.475 91.4375ZM263.6 88.625L256.1 88.625L256.1 91.4375L263.6 91.4375L263.6 88.625Z" fill="#121212"/>
<path d="M289.587 88.625L289.587 87.6875L290.525 87.6875L290.525 84.875L289.587 84.875L289.588 83.9375L290.525 83.9375L290.525 82.0625L292.4 82.0625L292.4 83.9375L293.338 83.9375L293.338 82.0625L295.213 82.0625L295.213 83.9375L296.15 83.9375L296.15 84.875L295.212 84.875L295.212 87.6875L296.15 87.6875L296.15 88.625L295.212 88.625L295.212 90.5L293.337 90.5L293.337 88.625L292.4 88.625L292.4 90.5L290.525 90.5L290.525 88.625L289.587 88.625ZM293.337 84.875L292.4 84.875L292.4 87.6875L293.337 87.6875L293.337 84.875ZM308.637 85.8125L311.45 85.8125L311.45 86.75L308.637 86.75L308.637 92.375L306.762 92.375L306.762 80.1875L308.637 80.1875L308.637 85.8125ZM303.012 90.5L302.075 90.5L302.075 89.5625L300.2 89.5625L300.2 90.5L299.262 90.5L299.262 91.4375L297.387 91.4375L297.387 90.5L298.325 90.5L298.325 89.5625L299.262 89.5625L299.262 88.625L300.2 88.625L300.2 81.125L302.075 81.125L302.075 88.625L303.012 88.625L303.012 89.5625L303.95 89.5625L303.95 90.5L304.887 90.5L304.887 91.4375L303.012 91.4375L303.012 90.5ZM320.187 86.75L318.312 86.75L318.312 85.8125L317.375 85.8125L317.375 84.875L315.5 84.875L315.5 85.8125L314.562 85.8125L314.562 86.75L312.687 86.75L312.687 85.8125L313.625 85.8125L313.625 84.875L314.562 84.875L314.562 83.9375L315.5 83.9375L315.5 81.125L312.687 81.125L312.687 80.1875L320.187 80.1875L320.187 81.125L317.375 81.125L317.375 83.9375L318.312 83.9375L318.312 84.875L319.25 84.875L319.25 85.8125L320.187 85.8125L320.187 86.75ZM324.875 86.75L323 86.75L323 80.1875L324.875 80.1875L324.875 86.75ZM315.5 91.4375L324.875 91.4375L324.875 92.375L314.562 92.375L314.562 91.4375L313.625 91.4375L313.625 87.6875L315.5 87.6875L315.5 91.4375ZM335.488 86.75L333.613 86.75L333.613 85.8125L332.675 85.8125L332.675 84.875L330.8 84.875L330.8 85.8125L329.863 85.8125L329.863 86.75L327.988 86.75L327.988 85.8125L328.925 85.8125L328.925 84.875L329.863 84.875L329.863 83.9375L330.8 83.9375L330.8 81.125L327.988 81.125L327.988 80.1875L335.488 80.1875L335.488 81.125L332.675 81.125L332.675 83.9375L333.613 83.9375L333.613 84.875L334.55 84.875L334.55 85.8125L335.488 85.8125L335.488 86.75ZM339.238 83L342.05 83L342.05 83.9375L339.238 83.9375L339.238 86.75L337.363 86.75L337.363 80.1875L339.238 80.1875L339.238 83ZM339.238 91.4375L338.3 91.4375L338.3 92.375L337.363 92.375L337.363 88.625L328.925 88.625L328.925 87.6875L339.238 87.6875L339.238 91.4375ZM354.538 85.8125L357.35 85.8125L357.35 86.75L354.538 86.75L354.538 92.375L352.663 92.375L352.663 80.1875L354.538 80.1875L354.538 85.8125ZM346.1 89.5625L347.038 89.5625L347.038 82.0625L343.288 82.0625L343.288 81.125L348.913 81.125L348.913 89.5625L347.975 89.5625L347.975 90.5L347.038 90.5L347.038 91.4375L344.225 91.4375L344.225 90.5L346.1 90.5L346.1 89.5625Z" fill="#121212"/>
<path d="M388.487 88.625L388.487 87.6875L389.425 87.6875L389.425 84.875L388.487 84.875L388.487 83.9375L389.425 83.9375L389.425 82.0625L391.3 82.0625L391.3 83.9375L392.237 83.9375L392.237 82.0625L394.112 82.0625L394.112 83.9375L395.05 83.9375L395.05 84.875L394.112 84.875L394.112 87.6875L395.05 87.6875L395.05 88.625L394.112 88.625L394.112 90.5L392.237 90.5L392.237 88.625L391.3 88.625L391.3 90.5L389.425 90.5L389.425 88.625L388.487 88.625ZM392.237 84.875L391.3 84.875L391.3 87.6875L392.237 87.6875L392.237 84.875ZM400.037 89.5625L400.037 87.6875L399.1 87.6875L399.1 86.75L398.162 86.75L398.162 85.8125L397.225 85.8125L397.225 84.875L396.287 84.875L396.287 83L397.225 83L397.225 82.0625L400.975 82.0625L400.975 83L401.912 83L401.912 83.9375L400.037 83.9375L400.037 83L398.162 83L398.162 84.875L399.1 84.875L399.1 85.8125L400.037 85.8125L400.037 86.75L400.975 86.75L400.975 87.6875L401.912 87.6875L401.912 89.5625L400.975 89.5625L400.975 90.5L397.225 90.5L397.225 89.5625L396.287 89.5625L396.287 88.625L398.162 88.625L398.162 89.5625L400.037 89.5625ZM404.087 90.5L404.088 82.0625L405.963 82.0625L405.963 83.9375L406.9 83.9375L406.9 84.875L407.837 84.875L407.837 85.8125L408.775 85.8125L408.775 82.0625L410.65 82.0625L410.65 90.5L408.775 90.5L408.775 87.6875L407.837 87.6875L407.837 86.75L406.9 86.75L406.9 85.8125L405.962 85.8125L405.962 90.5L404.087 90.5ZM415.637 89.5625L415.637 87.6875L414.7 87.6875L414.7 86.75L413.762 86.75L413.762 85.8125L412.825 85.8125L412.825 84.875L411.887 84.875L411.887 83L412.825 83L412.825 82.0625L416.575 82.0625L416.575 83L417.512 83L417.512 83.9375L415.637 83.9375L415.637 83L413.762 83L413.762 84.875L414.7 84.875L414.7 85.8125L415.637 85.8125L415.637 86.75L416.575 86.75L416.575 87.6875L417.512 87.6875L417.512 89.5625L416.575 89.5625L416.575 90.5L412.825 90.5L412.825 89.5625L411.887 89.5625L411.887 88.625L413.762 88.625L413.762 89.5625L415.637 89.5625Z" fill="#121212"/>
<path d="M450.687 89.125L450.687 88.1875L451.625 88.1875L451.625 85.375L450.687 85.375L450.687 84.4375L451.625 84.4375L451.625 82.5625L453.5 82.5625L453.5 84.4375L454.437 84.4375L454.437 82.5625L456.312 82.5625L456.312 84.4375L457.25 84.4375L457.25 85.375L456.312 85.375L456.312 88.1875L457.25 88.1875L457.25 89.125L456.312 89.125L456.312 91L454.437 91L454.437 89.125L453.5 89.125L453.5 91L451.625 91L451.625 89.125L450.687 89.125ZM454.437 85.375L453.5 85.375L453.5 88.1875L454.437 88.1875L454.437 85.375ZM460.362 84.4375L461.3 84.4375L461.3 85.375L460.362 85.375L460.362 91L458.487 91L458.487 82.5625L460.362 82.5625L460.362 84.4375ZM463.175 82.5625L465.05 82.5625L465.05 91L463.175 91L463.175 85.375L462.237 85.375L462.237 84.4375L463.175 84.4375L463.175 82.5625ZM461.3 88.1875L461.3 85.375L462.237 85.375L462.237 88.1875L461.3 88.1875ZM467.225 85.375L467.225 84.4375L470.975 84.4375L470.975 85.375L471.912 85.375L471.912 88.1875L468.162 88.1875L468.162 90.0625L470.975 90.0625L470.975 91L467.225 91L467.225 90.0625L466.287 90.0625L466.287 85.375L467.225 85.375ZM470.037 85.375L468.162 85.375L468.162 87.25L470.037 87.25L470.037 85.375ZM479.712 82.5625L479.712 91L475.025 91L475.025 90.0625L474.087 90.0625L474.087 85.375L475.025 85.375L475.025 84.4375L477.837 84.4375L477.837 82.5625L479.712 82.5625ZM477.837 85.375L475.962 85.375L475.962 90.0625L477.837 90.0625L477.837 85.375ZM483.762 83.5L483.762 81.625L485.637 81.625L485.637 83.5L483.762 83.5ZM487.512 90.0625L487.512 91L481.887 91L481.887 90.0625L483.762 90.0625L483.762 85.375L481.887 85.375L481.887 84.4375L485.637 84.4375L485.637 90.0625L487.512 90.0625ZM490.625 85.375L490.625 84.4375L494.375 84.4375L494.375 85.375L495.312 85.375L495.312 91L490.625 91L490.625 90.0625L489.687 90.0625L489.687 88.1875L490.625 88.1875L490.625 87.25L493.437 87.25L493.437 85.375L490.625 85.375ZM493.437 88.1875L491.562 88.1875L491.562 90.0625L493.437 90.0625L493.437 88.1875Z" fill="#121212"/>
<path d="M524.587 88.625L524.587 87.6875L525.525 87.6875L525.525 84.875L524.587 84.875L524.587 83.9375L525.525 83.9375L525.525 82.0625L527.4 82.0625L527.4 83.9375L528.337 83.9375L528.337 82.0625L530.212 82.0625L530.212 83.9375L531.15 83.9375L531.15 84.875L530.212 84.875L530.212 87.6875L531.15 87.6875L531.15 88.625L530.212 88.625L530.212 90.5L528.337 90.5L528.337 88.625L527.4 88.625L527.4 90.5L525.525 90.5L525.525 88.625L524.587 88.625ZM528.337 84.875L527.4 84.875L527.4 87.6875L528.337 87.6875L528.337 84.875ZM532.387 90.5L532.387 82.0625L534.262 82.0625L534.262 83.9375L535.2 83.9375L535.2 84.875L536.137 84.875L536.137 85.8125L537.075 85.8125L537.075 82.0625L538.95 82.0625L538.95 90.5L537.075 90.5L537.075 87.6875L536.137 87.6875L536.137 86.75L535.2 86.75L535.2 85.8125L534.262 85.8125L534.262 90.5L532.387 90.5ZM542.062 86.75L542.062 89.5625L545.812 89.5625L545.812 90.5L540.187 90.5L540.187 82.0625L545.812 82.0625L545.812 83L542.062 83L542.062 85.8125L544.875 85.8125L544.875 86.75L542.062 86.75ZM549.862 82.0625L549.862 87.6875L550.8 87.6875L550.8 90.5L548.925 90.5L548.925 87.6875L547.987 87.6875L547.987 82.0625L549.862 82.0625ZM552.675 82.0625L554.55 82.0625L554.55 87.6875L553.612 87.6875L553.612 90.5L551.737 90.5L551.737 87.6875L552.675 87.6875L552.675 82.0625ZM550.8 84.875L551.737 84.875L551.737 87.6875L550.8 87.6875L550.8 84.875ZM559.537 89.5625L559.537 87.6875L558.6 87.6875L558.6 86.75L557.662 86.75L557.662 85.8125L556.725 85.8125L556.725 84.875L555.787 84.875L555.787 83L556.725 83L556.725 82.0625L560.475 82.0625L560.475 83L561.412 83L561.412 83.9375L559.537 83.9375L559.537 83L557.662 83L557.662 84.875L558.6 84.875L558.6 85.8125L559.537 85.8125L559.537 86.75L560.475 86.75L560.475 87.6875L561.412 87.6875L561.412 89.5625L560.475 89.5625L560.475 90.5L556.725 90.5L556.725 89.5625L555.787 89.5625L555.787 88.625L557.662 88.625L557.662 89.5625L559.537 89.5625Z" fill="#121212"/>
<path d="M598.487 88.625L598.487 87.6875L599.425 87.6875L599.425 84.875L598.487 84.875L598.487 83.9375L599.425 83.9375L599.425 82.0625L601.3 82.0625L601.3 83.9375L602.237 83.9375L602.237 82.0625L604.112 82.0625L604.112 83.9375L605.05 83.9375L605.05 84.875L604.112 84.875L604.112 87.6875L605.05 87.6875L605.05 88.625L604.112 88.625L604.112 90.5L602.237 90.5L602.237 88.625L601.3 88.625L601.3 90.5L599.425 90.5L599.425 88.625L598.487 88.625ZM602.237 84.875L601.3 84.875L601.3 87.6875L602.237 87.6875L602.237 84.875ZM608.162 83L608.162 82.0625L610.037 82.0625L610.037 83L610.975 83L610.975 83.9375L611.912 83.9375L611.912 90.5L610.037 90.5L610.037 87.6875L608.162 87.6875L608.162 90.5L606.287 90.5L606.287 83.9375L607.225 83.9375L607.225 83L608.162 83ZM610.037 83.9375L608.162 83.9375L608.162 86.75L610.037 86.75L610.037 83.9375ZM615.963 83.9375L615.962 85.8125L616.9 85.8125L616.9 86.75L615.962 86.75L615.962 90.5L614.087 90.5L614.088 83.9375L615.963 83.9375ZM619.712 85.8125L616.9 85.8125L616.9 84.875L617.837 84.875L617.838 83.9375L619.713 83.9375L619.712 85.8125ZM624.7 82.0625L624.7 83.9375L627.512 83.9375L627.512 84.875L624.7 84.875L624.7 89.5625L627.512 89.5625L627.512 90.5L623.762 90.5L623.762 89.5625L622.825 89.5625L622.825 84.875L621.887 84.875L621.887 83.9375L622.825 83.9375L622.825 82.0625L624.7 82.0625Z" fill="#121212"/>
<path d="M222.08 344.86H218V342.84H222.44L223.04 339H213.2V354H218V348.44H222.08V344.86ZM229.689 354H224.889V342.6L229.689 342V354ZM224.629 339.74C224.629 339.38 224.669 339.08 224.749 338.84C224.829 338.587 224.969 338.387 225.169 338.24C225.369 338.08 225.642 337.967 225.989 337.9C226.336 337.833 226.776 337.8 227.309 337.8C227.842 337.8 228.276 337.833 228.609 337.9C228.956 337.967 229.229 338.08 229.429 338.24C229.629 338.387 229.769 338.587 229.849 338.84C229.929 339.08 229.969 339.38 229.969 339.74C229.969 340.1 229.929 340.4 229.849 340.64C229.769 340.88 229.629 341.08 229.429 341.24C229.229 341.387 228.956 341.493 228.609 341.56C228.276 341.613 227.842 341.64 227.309 341.64C226.922 341.64 226.562 341.627 226.229 341.6C225.909 341.573 225.629 341.5 225.389 341.38C225.149 341.247 224.962 341.053 224.829 340.8C224.696 340.547 224.629 340.193 224.629 339.74ZM232.496 342H234.896L236.096 343.2C237.576 342.16 239.176 341.64 240.896 341.64C242.029 341.64 242.909 341.887 243.536 342.38C244.176 342.86 244.496 343.533 244.496 344.4V354H239.696V345.6H238.956C238.409 345.6 237.996 345.66 237.716 345.78C237.436 345.887 237.296 346.133 237.296 346.52V354H232.496V342ZM259.053 338.04V354H256.653L255.613 353C254.933 353.907 253.68 354.36 251.853 354.36C250.893 354.36 250.087 354.187 249.433 353.84C248.78 353.493 248.247 353.033 247.833 352.46C247.433 351.873 247.14 351.193 246.953 350.42C246.78 349.647 246.693 348.84 246.693 348C246.693 347.2 246.773 346.44 246.933 345.72C247.093 344.987 247.36 344.347 247.733 343.8C248.107 343.253 248.6 342.82 249.213 342.5C249.827 342.167 250.587 342 251.493 342H254.253V338.4L259.053 338.04ZM251.853 346.16V350.86H252.593C253.14 350.86 253.54 350.813 253.793 350.72C254.06 350.613 254.213 350.373 254.253 350V345.14H253.513C252.927 345.14 252.5 345.2 252.233 345.32C251.98 345.44 251.853 345.72 251.853 346.16ZM267.767 348C267.767 345.853 268.267 344.26 269.267 343.22C270.267 342.167 271.887 341.64 274.127 341.64C276.367 341.64 277.987 342.167 278.987 343.22C279.987 344.26 280.487 345.853 280.487 348C280.487 350.147 279.987 351.747 278.987 352.8C277.987 353.84 276.367 354.36 274.127 354.36C271.94 354.36 270.334 353.847 269.307 352.82C268.28 351.793 267.767 350.187 267.767 348ZM272.927 346.16V350.86H273.667C274.254 350.86 274.674 350.8 274.927 350.68C275.194 350.56 275.327 350.28 275.327 349.84V345.14H274.587C274 345.14 273.574 345.2 273.307 345.32C273.054 345.44 272.927 345.72 272.927 346.16ZM282.567 342H287.367V350.86H288.107C288.694 350.86 289.114 350.8 289.367 350.68C289.634 350.56 289.767 350.28 289.767 349.84V342H294.567V354H292.167L290.767 352.64C289.807 353.787 288.44 354.36 286.667 354.36C285.24 354.36 284.2 354.06 283.547 353.46C282.894 352.847 282.567 351.827 282.567 350.4V342ZM297.847 345.1H296.647V342H297.847V340.08L302.647 338.88V342H304.307V345.1H302.647V350.56C302.847 350.6 303.067 350.64 303.307 350.68C303.547 350.707 303.801 350.727 304.067 350.74L303.847 354.26C301.661 354.26 300.234 354.14 299.567 353.9C299.007 353.7 298.581 353.447 298.287 353.14C297.994 352.82 297.847 352.353 297.847 351.74V345.1ZM316.894 352.76H314.374L311.694 342H316.494L317.814 349.8H318.054L319.374 342H324.174L321.174 354C320.96 354.787 320.714 355.433 320.434 355.94C320.167 356.447 319.854 356.847 319.494 357.14C319.134 357.447 318.714 357.66 318.234 357.78C317.767 357.9 317.22 357.96 316.594 357.96H311.934V354.84L314.194 354.4C315.354 354.133 316.107 353.847 316.454 353.54C316.547 353.46 316.634 353.367 316.714 353.26C316.794 353.153 316.867 353.033 316.934 352.9L316.894 352.76ZM325.294 348C325.294 345.853 325.794 344.26 326.794 343.22C327.794 342.167 329.414 341.64 331.654 341.64C333.894 341.64 335.514 342.167 336.514 343.22C337.514 344.26 338.014 345.853 338.014 348C338.014 350.147 337.514 351.747 336.514 352.8C335.514 353.84 333.894 354.36 331.654 354.36C329.468 354.36 327.861 353.847 326.834 352.82C325.808 351.793 325.294 350.187 325.294 348ZM330.454 346.16V350.86H331.194C331.781 350.86 332.201 350.8 332.454 350.68C332.721 350.56 332.854 350.28 332.854 349.84V345.14H332.114C331.528 345.14 331.101 345.2 330.834 345.32C330.581 345.44 330.454 345.72 330.454 346.16ZM340.094 342H344.894V350.86H345.634C346.221 350.86 346.641 350.8 346.894 350.68C347.161 350.56 347.294 350.28 347.294 349.84V342H352.094V354H349.694L348.294 352.64C347.334 353.787 345.968 354.36 344.194 354.36C342.768 354.36 341.728 354.06 341.074 353.46C340.421 352.847 340.094 351.827 340.094 350.4V342ZM354.895 354V342H357.295L358.615 343.34C359.575 342.46 360.761 341.893 362.175 341.64L362.455 346.18C362.268 346.18 362.041 346.207 361.775 346.26C361.508 346.313 361.235 346.38 360.955 346.46C360.688 346.54 360.441 346.64 360.215 346.76C359.988 346.867 359.815 346.993 359.695 347.14V354H354.895ZM370.695 357.96V342H373.095L373.975 343.2C374.681 342.16 375.988 341.64 377.895 341.64C378.855 341.64 379.661 341.813 380.315 342.16C380.968 342.507 381.495 342.973 381.895 343.56C382.308 344.133 382.601 344.807 382.775 345.58C382.961 346.353 383.055 347.16 383.055 348C383.055 348.813 382.975 349.58 382.815 350.3C382.655 351.02 382.388 351.66 382.015 352.22C381.641 352.767 381.148 353.2 380.535 353.52C379.921 353.84 379.161 354 378.255 354H375.495V357.6L370.695 357.96ZM375.495 346.04V350.86H376.235C376.821 350.86 377.241 350.8 377.495 350.68C377.761 350.56 377.895 350.28 377.895 349.84V345.14H377.155C376.808 345.14 376.528 345.153 376.315 345.18C376.101 345.207 375.915 345.293 375.755 345.44C375.595 345.573 375.508 345.773 375.495 346.04ZM390.172 346.6V354H385.372V338.4L390.172 338.04V342.44C391.199 341.907 392.332 341.64 393.572 341.64C394.825 341.64 395.772 341.887 396.412 342.38C397.052 342.86 397.372 343.533 397.372 344.4V354H392.572V345.6H391.832C391.245 345.6 390.819 345.66 390.552 345.78C390.299 345.9 390.172 346.173 390.172 346.6ZM399.569 348C399.569 345.853 400.069 344.26 401.069 343.22C402.069 342.167 403.689 341.64 405.929 341.64C408.169 341.64 409.789 342.167 410.789 343.22C411.789 344.26 412.289 345.853 412.289 348C412.289 350.147 411.789 351.747 410.789 352.8C409.789 353.84 408.169 354.36 405.929 354.36C403.743 354.36 402.136 353.847 401.109 352.82C400.083 351.793 399.569 350.187 399.569 348ZM404.729 346.16V350.86H405.469C406.056 350.86 406.476 350.8 406.729 350.68C406.996 350.56 407.129 350.28 407.129 349.84V345.14H406.389C405.803 345.14 405.376 345.2 405.109 345.32C404.856 345.44 404.729 345.72 404.729 346.16ZM415.089 345.1H413.889V342H415.089V340.08L419.889 338.88V342H421.549V345.1H419.889V350.56C420.089 350.6 420.309 350.64 420.549 350.68C420.789 350.707 421.043 350.727 421.309 350.74L421.089 354.26C418.903 354.26 417.476 354.14 416.809 353.9C416.249 353.7 415.823 353.447 415.529 353.14C415.236 352.82 415.089 352.353 415.089 351.74V345.1ZM423.26 348C423.26 345.853 423.76 344.26 424.76 343.22C425.76 342.167 427.38 341.64 429.62 341.64C431.86 341.64 433.48 342.167 434.48 343.22C435.48 344.26 435.98 345.853 435.98 348C435.98 350.147 435.48 351.747 434.48 352.8C433.48 353.84 431.86 354.36 429.62 354.36C427.433 354.36 425.827 353.847 424.8 352.82C423.773 351.793 423.26 350.187 423.26 348ZM428.42 346.16V350.86H429.16C429.747 350.86 430.167 350.8 430.42 350.68C430.687 350.56 430.82 350.28 430.82 349.84V345.14H430.08C429.493 345.14 429.067 345.2 428.8 345.32C428.547 345.44 428.42 345.72 428.42 346.16ZM437.9 342.56H441.1L441.5 338.8H438.3L437.9 342.56ZM445.055 342.48C446.082 341.92 447.489 341.64 449.275 341.64C451.075 341.64 452.722 341.887 454.215 342.38L453.655 345.64C453.029 345.453 452.409 345.32 451.795 345.24C451.182 345.16 450.555 345.12 449.915 345.12C449.729 345.12 449.495 345.127 449.215 345.14C448.949 345.153 448.642 345.18 448.295 345.22V345.98C449.029 345.98 449.782 346.02 450.555 346.1C451.329 346.167 452.029 346.34 452.655 346.62C453.295 346.887 453.815 347.293 454.215 347.84C454.629 348.373 454.835 349.107 454.835 350.04C454.835 350.693 454.762 351.28 454.615 351.8C454.469 352.307 454.242 352.713 453.935 353.02C453.615 353.327 453.282 353.573 452.935 353.76C452.602 353.947 452.162 354.08 451.615 354.16C451.189 354.227 450.729 354.273 450.235 354.3C449.755 354.34 449.235 354.36 448.675 354.36C446.715 354.36 444.922 354.127 443.295 353.66L443.895 350.26C444.575 350.46 445.275 350.613 445.995 350.72C446.715 350.827 447.469 350.88 448.255 350.88C448.615 350.88 448.955 350.873 449.275 350.86C449.609 350.847 449.929 350.82 450.235 350.78V350.02C448.955 350.02 447.882 349.94 447.015 349.78C446.162 349.607 445.469 349.347 444.935 349C444.415 348.653 444.042 348.2 443.815 347.64C443.602 347.08 443.495 346.413 443.495 345.64C443.495 344.093 444.015 343.04 445.055 342.48ZM471.589 354L474.589 342H469.789L468.469 349.8H468.229L466.909 342H462.109L465.109 354H471.589ZM480.989 354H476.189V342.6L480.989 342V354ZM475.929 339.74C475.929 339.38 475.969 339.08 476.049 338.84C476.129 338.587 476.269 338.387 476.469 338.24C476.669 338.08 476.942 337.967 477.289 337.9C477.636 337.833 478.076 337.8 478.609 337.8C479.142 337.8 479.576 337.833 479.909 337.9C480.256 337.967 480.529 338.08 480.729 338.24C480.929 338.387 481.069 338.587 481.149 338.84C481.229 339.08 481.269 339.38 481.269 339.74C481.269 340.1 481.229 340.4 481.149 340.64C481.069 340.88 480.929 341.08 480.729 341.24C480.529 341.387 480.256 341.493 479.909 341.56C479.576 341.613 479.142 341.64 478.609 341.64C478.222 341.64 477.862 341.627 477.529 341.6C477.209 341.573 476.929 341.5 476.689 341.38C476.449 341.247 476.262 341.053 476.129 340.8C475.996 340.547 475.929 340.193 475.929 339.74ZM483.796 353.4V338.4L488.596 338.04V342.02C489.183 341.767 489.983 341.64 490.996 341.64C491.956 341.64 492.763 341.813 493.416 342.16C494.069 342.507 494.596 342.973 494.996 343.56C495.409 344.133 495.703 344.807 495.876 345.58C496.063 346.353 496.156 347.16 496.156 348C496.156 350.253 495.636 351.88 494.596 352.88C493.556 353.867 491.983 354.36 489.876 354.36C487.769 354.36 485.743 354.04 483.796 353.4ZM488.596 346.04V350.86H489.336C489.923 350.86 490.343 350.8 490.596 350.68C490.863 350.56 490.996 350.28 490.996 349.84V345.14H490.256C489.909 345.14 489.629 345.153 489.416 345.18C489.203 345.207 489.016 345.293 488.856 345.44C488.696 345.573 488.609 345.773 488.596 346.04ZM503.153 349.92V350.76C503.393 350.787 503.633 350.807 503.873 350.82C504.113 350.833 504.353 350.84 504.593 350.84C506.087 350.84 507.593 350.6 509.113 350.12L509.673 353.64C507.873 354.12 506.1 354.36 504.353 354.36C502.113 354.36 500.493 353.84 499.493 352.8C498.493 351.747 497.993 350.147 497.993 348C497.993 345.853 498.493 344.26 499.493 343.22C500.507 342.167 502.127 341.64 504.353 341.64C505.473 341.64 506.407 341.713 507.153 341.86C507.9 341.993 508.5 342.227 508.953 342.56C509.42 342.88 509.747 343.32 509.933 343.88C510.133 344.427 510.233 345.12 510.233 345.96C510.233 346.653 510.113 347.253 509.873 347.76C509.647 348.253 509.26 348.66 508.713 348.98C508.167 349.3 507.44 349.54 506.533 349.7C505.627 349.847 504.5 349.92 503.153 349.92ZM503.153 346.16V347.14H504.133C504.72 347.14 505.14 347.08 505.393 346.96C505.66 346.84 505.793 346.56 505.793 346.12V345.14H504.813C504.227 345.14 503.8 345.2 503.533 345.32C503.28 345.44 503.153 345.72 503.153 346.16Z" fill="#121212"/>
<defs>
<filter id="filter0_d" x="0" y="44.4165" width="685" height="373.583" filterUnits="userSpaceOnUse" color-interpolation-filters="sRGB">
<feFlood flood-opacity="0" result="BackgroundImageFix"/>
<feColorMatrix in="SourceAlpha" type="matrix" values="0 0 0 0 0 0 0 0 0 0 0 0 0 0 0 0 0 0 127 0"/>
<feOffset dy="4"/>
<feGaussianBlur stdDeviation="2"/>
<feColorMatrix type="matrix" values="0 0 0 0 0 0 0 0 0 0 0 0 0 0 0 0 0 0 0.05 0"/>
<feBlend mode="normal" in2="BackgroundImageFix" result="effect1_dropShadow"/>
<feBlend mode="normal" in="SourceGraphic" in2="effect1_dropShadow" result="shape"/>
</filter>
</defs>
</svg>
