<svg width="100" height="100" viewBox="0 0 100 100" fill="none" xmlns="http://www.w3.org/2000/svg">
<path d="M12.5 16.6667V4.16669H20.8333V16.6667H33.3333V25H20.8333V37.5H12.5V25H0V16.6667H12.5ZM25 41.6667V29.1667H37.5V16.6667H66.6667L74.2917 25H87.5C92.0833 25 95.8333 28.75 95.8333 33.3334V83.3334C95.8333 87.9167 92.0833 91.6667 87.5 91.6667H20.8333C16.25 91.6667 12.5 87.9167 12.5 83.3334V41.6667H25ZM54.1667 79.1667C65.6667 79.1667 75 69.8334 75 58.3334C75 46.8334 65.6667 37.5 54.1667 37.5C42.6667 37.5 33.3333 46.8334 33.3333 58.3334C33.3333 69.8334 42.6667 79.1667 54.1667 79.1667ZM40.8333 58.3334C40.8333 65.7084 46.7917 71.6667 54.1667 71.6667C61.5417 71.6667 67.5 65.7084 67.5 58.3334C67.5 50.9584 61.5417 45 54.1667 45C46.7917 45 40.8333 50.9584 40.8333 58.3334Z" fill="#202020"/>
</svg>
