<svg width="185" height="185" viewBox="0 0 185 185" fill="none" xmlns="http://www.w3.org/2000/svg">
<path d="M23.125 30.8333V7.70831H38.5417V30.8333H61.6667V46.25H38.5417V69.375H23.125V46.25H0V30.8333H23.125ZM46.25 77.0833V53.9583H69.375V30.8333H123.333L137.44 46.25H161.875C170.354 46.25 177.292 53.1875 177.292 61.6667V154.167C177.292 162.646 170.354 169.583 161.875 169.583H38.5417C30.0625 169.583 23.125 162.646 23.125 154.167V77.0833H46.25ZM100.208 146.458C121.483 146.458 138.75 129.192 138.75 107.917C138.75 86.6417 121.483 69.375 100.208 69.375C78.9333 69.375 61.6667 86.6417 61.6667 107.917C61.6667 129.192 78.9333 146.458 100.208 146.458ZM75.5417 107.917C75.5417 121.56 86.5646 132.583 100.208 132.583C113.852 132.583 124.875 121.56 124.875 107.917C124.875 94.2729 113.852 83.25 100.208 83.25C86.5646 83.25 75.5417 94.2729 75.5417 107.917Z" fill="#202020"/>
</svg>
